<svg xmlns="http://www.w3.org/2000/svg" xmlns:xlink="http://www.w3.org/1999/xlink" width="903" height="176"><defs><linearGradient id="b" x1="30.526%" x2="62.88%" y1="74.452%" y2="50%"><stop offset="0%" stop-color="#8569FF"/><stop offset="100%" stop-color="#5233E2"/></linearGradient><linearGradient id="d" x1="67.089%" x2="32.911%" y1="39.607%" y2="33.46%"><stop offset="0%" stop-color="#FFC615"/><stop offset="100%" stop-color="#F9A511"/></linearGradient><path id="a" d="M0 .76h99.26v171.66H0z"/></defs><g fill="none" fill-rule="evenodd"><g transform="translate(6 3)"><mask id="c" fill="#fff"><use xlink:href="#a"/></mask><path fill="url(#b)" d="M33.88 166.47l65.38-58.22-62.68-98c-.02-.01-.03-.03-.04-.05A19.7 19.7 0 0019.74.76 19.75 19.75 0 00.05 19.51c-.02.04-.04.07-.05.1v132.36c0 .02.02.05.03.09 0 .17-.03.34-.03.52a19.8 19.8 0 0019.77 19.84c4.3 0 8.26-1.38 11.5-3.72.13 0 .27-.08.46-.31l.21-.19c.69-.54 1.34-1.1 1.94-1.73" mask="url(#c)"/></g><path fill="url(#d)" d="M126.06 26.5L76 70.6l48 74.21c0 .01.02.03.02.04A15.11 15.11 0 00136.9 152c8.07 0 14.65-6.29 15.07-14.2.02-.02.04-.05.04-.08V37.5a.19.19 0 00-.02-.07c0-.14.02-.27.02-.4 0-8.3-6.78-15.03-15.14-15.03-3.29 0-6.32 1.05-8.8 2.82-.1 0-.2.07-.36.24l-.16.14c-.52.4-1.02.84-1.48 1.3" transform="translate(6 3)"/><path fill="#262626" d="M285.48 133l-44.2-68.8h-.24V133H228V44h14.25l43.47 67.71h.24V44H299v89zm28.52 0h12V66.37h-12V133zm0-74.33h12V44h-12v14.67zm75.17 30.23c-2.05-4.2-6.86-12.5-18.77-12.5-16.12 0-21.89 13.45-21.89 23.54 0 11.53 7.34 23.65 21.65 23.65 9.38 0 15.76-5.4 18.89-12.24H403c-5.05 14.77-18.05 23.65-32.84 23.65-21.9 0-34.16-17.89-34.16-35.06 0-18 13.23-34.94 34.28-34.94 18.89 0 30.2 14.05 32.72 23.9h-13.83zm72.36 44.1V96.8c0-5.17 0-20.8-16.55-20.8-10.43 0-17.5 7.33-17.5 20.68V133H415V44h12.47v29.47h.24c6-8.9 15.95-8.9 18.59-8.9 10.31 0 18.7 4.45 23.5 11.9 2.64 4.33 4.08 9.63 4.2 17.08V133h-12.47zm77.97-37.14c-.6-9.73-9.49-19.45-21.5-19.45s-20.9 9.72-21.5 19.45h43zm-43 9.6c3.12 12.85 13.45 18.13 21.86 18.13 9.25 0 15.98-5.4 18.98-11.16h12.5C543.47 129.59 528.2 135 517.88 135 499.02 135 484 118.79 484 99.94 484 80 499.38 65 518.12 65A34.1 34.1 0 01552 99.1c0 2.16-.24 5.52-.36 6.36H496.5zM608.53 133V96.8c0-5.17 0-20.8-16.55-20.8-10.43 0-17.5 7.33-17.5 20.68V133H562V44h12.47v29.47h.24c6-8.9 15.95-8.9 18.59-8.9 10.31 0 18.7 4.45 23.5 11.9 2.64 4.33 4.08 9.63 4.2 17.08V133h-12.47zm57.97-56.6c-15.46 0-22.94 13.33-22.94 23.78 0 12 9.54 23.41 22.82 23.41a23.3 23.3 0 0023.3-23.41c0-14.17-10.26-23.77-23.18-23.77zm22.94 56.92v-10.33h-.24c-4.83 8.17-13.64 12.01-22.7 12.01-22.58 0-35.5-17.17-35.5-34.7 0-16.21 11.47-35.3 35.5-35.3 9.3 0 17.87 3.84 22.7 11.17h.24V66.8H702v66.52h-12.56zm75.73-44.42c-2.05-4.2-6.86-12.5-18.77-12.5-16.12 0-21.9 13.45-21.9 23.54 0 11.53 7.35 23.65 21.66 23.65 9.38 0 15.76-5.4 18.89-12.24H779c-5.05 14.77-18.04 23.65-32.84 23.65-21.9 0-34.16-17.89-34.16-35.06 0-18 13.23-34.94 34.28-34.94 18.89 0 30.2 14.05 32.72 23.9h-13.83zm75.99-22.53l-24.14 31.4L845 133h-15.61l-26.66-34.52h-.24V133H790V44h12.5v54.48h.23l23.66-32.1zm37.75 18.08c-.72-5.4-3.97-8.04-8.55-8.04s-7.83 2.88-7.83 7.08c0 5.52 4.82 6.96 10.36 8.65 5.18 1.56 20.11 5.76 20.11 21.6 0 11.77-8.2 21.26-22.4 21.26-8.43 0-23.6-5.29-23.6-23.53h12.52c.48 7.44 4.34 12.12 11.32 12.12 5.66 0 9.64-3.48 9.64-9.12 0-5.89-5.18-7.93-11.69-10.2-7.22-2.65-18.78-5.9-18.78-20.06 0-9.84 8.31-19.21 20.95-19.21 7.59 0 20.1 4.68 20.47 19.45H878.9z"/></g></svg>